#N canvas 930 201 450 300 10;
#X obj 280 80 dumpOSC 8888;
#X obj 39 161 sendOSC 8888;
#X msg 39 138 connect 255.255.255.255 8888;
#X obj 11 69 inlet;
#X obj 280 125 outlet;
#X obj 39 117 loadbang;
#X obj 280 102 route /tick;
#X msg 11 91 send /tick 1;
#X connect 0 0 6 0;
#X connect 2 0 1 0;
#X connect 3 0 7 0;
#X connect 5 0 2 0;
#X connect 6 0 4 0;
#X connect 7 0 1 0;
