#N canvas 218 516 450 300 10;
#X obj 280 80 dumpOSC 8888;
#X obj 39 161 sendOSC 8888;
#X obj 11 69 inlet;
#X obj 280 125 outlet;
#X obj 39 117 loadbang;
#X obj 280 102 route /tick;
#X msg 11 91 send /tick 1;
#X msg 39 138 connect 255.255.255.255 8888;
#X obj 123 69 inlet;
#X msg 123 92 send /tempo \$1;
#X obj 361 123 outlet;
#X obj 361 100 route /tempo;
#X connect 0 0 5 0;
#X connect 0 0 11 0;
#X connect 2 0 6 0;
#X connect 4 0 7 0;
#X connect 5 0 3 0;
#X connect 6 0 1 0;
#X connect 7 0 1 0;
#X connect 8 0 9 0;
#X connect 9 0 1 0;
#X connect 11 0 10 0;
