#N canvas 513 0 872 802 10;
#X obj 149 -396 peak;
#X obj 59 -448 inlet;
#X obj 59 -144 max;
#X obj 99 -116 f;
#X floatatom 59 -92 5 0 0 0 - - -;
#X floatatom 59 -411 10 0 0 0 - - -;
#X floatatom 263 -359 5 0 0 0 - - -;
#X floatatom 303 -359 5 0 0 0 - - -;
#X obj 377 -440 tgl 15 0 empty empty empty 17 7 0 10 -262144 -1 -1
0 1;
#X obj 377 -416 metro 100;
#X msg 377 -387 bang;
#X floatatom 284 -209 5 0 0 0 - - -;
#X obj 377 -192 f;
#X floatatom 377 -160 5 0 0 0 - - -;
#X obj 285 -244 +;
#X floatatom 319 -266 15 0 0 0 - - -;
#X obj 161 129 bng 15 250 50 0 empty empty empty 17 7 0 10 -262144
-1 -1;
#X floatatom 227 127 5 0 0 0 - - -;
#X obj 227 170 tgl 15 0 empty empty empty 17 7 0 10 -262144 -1 -1 0
1;
#X obj 228 202 bng 15 250 50 0 empty empty empty 17 7 0 10 -262144
-1 -1;
#X obj 139 233 mod 1;
#X floatatom 139 269 5 0 0 0 - - -;
#X obj 302 -26 trigger bang float;
#X floatatom 302 8 5 0 0 0 - - -;
#X floatatom 407 8 5 0 0 0 - - -;
#X obj 56 -26 trigger bang float;
#X floatatom 56 9 5 0 0 0 - - -;
#X floatatom 161 9 5 0 0 0 - - -;
#X obj 282 165 sel 0 1;
#X obj 301 314 outlet;
#X obj 321 205 bng 15 250 50 0 empty empty empty 17 7 0 10 -262144
-1 -1;
#X obj 282 205 bng 15 250 50 0 empty empty empty 17 7 0 10 -262144
-1 -1;
#X obj 301 240 bng 15 250 50 0 empty empty empty 17 7 0 10 -262144
-1 -1;
#X floatatom 100 86 5 0 0 0 - - -;
#X msg 479 -30 1;
#X obj 161 88 <=;
#X obj 407 71 change;
#X obj 535 -456 != 0;
#X obj 647 -451 inlet;
#X floatatom 639 -290 15 0 0 0 - - -;
#X floatatom 639 -352 5 0 0 0 - - -;
#X obj 746 -445 loadbang;
#X floatatom 195 -359 10 0 0 0 - - -;
#X obj 521 52 max;
#X obj 571 68 f;
#X floatatom 521 89 15 0 0 0 - - -;
#X obj 208 18 max;
#X obj 258 34 f;
#X floatatom 208 55 15 0 0 0 - - -;
#X msg 334 -326 1;
#X obj 647 -384 + 1;
#X obj 639 -315 expr ((($f1)/10));
#X obj 270 -108 pipe 1;
#X msg 611 -98 0;
#X msg 746 -368 200;
#X obj 318 -291 expr (($f1/100) * 0.0025);
#X obj 59 -198 pipe 5;
#X obj 144 -442 hsl 128 15 0 4096 0 0 empty empty empty -2 -8 0 10
-262144 -1 -1 0 1;
#X connect 0 0 42 0;
#X connect 0 1 6 0;
#X connect 0 2 7 0;
#X connect 1 0 5 0;
#X connect 2 0 3 0;
#X connect 2 0 4 0;
#X connect 3 0 2 1;
#X connect 4 0 25 0;
#X connect 5 0 14 0;
#X connect 5 0 0 0;
#X connect 5 0 52 0;
#X connect 5 0 55 0;
#X connect 5 0 56 0;
#X connect 8 0 9 0;
#X connect 9 0 10 0;
#X connect 10 0 0 0;
#X connect 10 0 12 0;
#X connect 11 0 12 1;
#X connect 11 0 37 0;
#X connect 12 0 13 0;
#X connect 13 0 2 1;
#X connect 14 0 11 0;
#X connect 15 0 14 1;
#X connect 17 0 18 0;
#X connect 17 0 20 0;
#X connect 17 0 28 0;
#X connect 18 0 19 0;
#X connect 20 0 21 0;
#X connect 22 0 23 0;
#X connect 22 1 24 0;
#X connect 24 0 36 0;
#X connect 24 0 43 0;
#X connect 25 0 26 0;
#X connect 25 1 27 0;
#X connect 27 0 35 0;
#X connect 27 0 33 0;
#X connect 27 0 46 0;
#X connect 28 0 31 0;
#X connect 28 1 32 0;
#X connect 28 2 30 0;
#X connect 32 0 29 0;
#X connect 34 0 24 0;
#X connect 35 0 16 0;
#X connect 35 0 17 0;
#X connect 36 0 35 1;
#X connect 37 0 8 0;
#X connect 38 0 50 0;
#X connect 39 0 9 1;
#X connect 40 0 51 0;
#X connect 41 0 54 0;
#X connect 41 0 49 0;
#X connect 43 0 44 0;
#X connect 43 0 45 0;
#X connect 44 0 43 1;
#X connect 46 0 47 0;
#X connect 46 0 48 0;
#X connect 47 0 46 1;
#X connect 49 0 55 0;
#X connect 50 0 40 0;
#X connect 51 0 39 0;
#X connect 52 0 22 0;
#X connect 53 0 43 1;
#X connect 53 0 46 1;
#X connect 54 0 40 0;
#X connect 55 0 15 0;
#X connect 56 0 2 0;
#X connect 57 0 5 0;
