#N canvas 0 22 1280 704 10;
#X obj 156 151 dac~;
#X obj 164 123 clip~ -1 1;
#X obj 164 99 vol~;
#X floatatom 201 99 5 0 0 0 - - -;
#X obj 163 75 catch~ s;
#X obj 664 383 throw~ s;
#X msg 752 229 bang;
#X obj 834 525 del 1000;
#X obj 835 549 s b1;
#X obj 752 203 spigot;
#X obj 654 152 tgl 15 0 empty empty empty 17 7 0 10 -262144 -1 -1 1
1;
#X obj 663 299 click~;
#X obj 894 346 counter;
#X obj 894 395 sin;
#X obj 895 473 /;
#X floatatom 910 428 5 0 0 0 - - -;
#X obj 911 450 / 1000;
#X obj 894 370 % 100;
#X obj 615 300 click~;
#X obj 922 396 init 168;
#X obj 663 353 +~;
#X obj 315 368 throw~ s;
#X msg 405 199 bang;
#X obj 487 494 del 1000;
#X obj 404 146 r b1;
#X obj 405 172 spigot;
#X obj 316 268 click~;
#X obj 547 315 counter;
#X obj 547 364 sin;
#X obj 548 442 /;
#X floatatom 563 397 5 0 0 0 - - -;
#X obj 564 419 / 1000;
#X obj 547 339 % 100;
#X obj 268 269 click~;
#X obj 575 365 init 168;
#X obj 316 322 +~;
#X obj 487 518 s b2;
#X obj 548 145 tgl 15 0 empty empty empty 17 7 0 10 -262144 -1 -1 1
1;
#X obj 595 94 tgl 15 0 empty empty empty 17 7 0 10 -262144 -1 -1 1
1;
#X obj 751 177 r b2;
#X obj 270 237 del 1000;
#X floatatom 318 170 5 0 0 0 - - -;
#X obj 318 195 / 100;
#X obj 208 311 osc~ 50;
#X obj 190 272 ead~ 1 100;
#X obj 194 344 *~;
#X connect 1 0 0 0;
#X connect 1 0 0 1;
#X connect 2 0 1 0;
#X connect 3 0 2 1;
#X connect 4 0 2 0;
#X connect 6 0 7 0;
#X connect 6 0 11 0;
#X connect 6 0 12 0;
#X connect 6 0 18 0;
#X connect 7 0 8 0;
#X connect 9 0 6 0;
#X connect 10 0 9 1;
#X connect 10 0 6 0;
#X connect 11 0 20 0;
#X connect 12 0 17 0;
#X connect 13 0 14 0;
#X connect 13 0 20 1;
#X connect 14 0 7 1;
#X connect 15 0 16 0;
#X connect 16 0 14 1;
#X connect 17 0 13 0;
#X connect 18 0 5 0;
#X connect 19 0 15 0;
#X connect 20 0 5 0;
#X connect 22 0 23 0;
#X connect 22 0 27 0;
#X connect 22 0 26 0;
#X connect 22 0 40 0;
#X connect 23 0 36 0;
#X connect 24 0 25 0;
#X connect 25 0 22 0;
#X connect 26 0 35 0;
#X connect 27 0 32 0;
#X connect 28 0 29 0;
#X connect 28 0 35 1;
#X connect 29 0 23 1;
#X connect 30 0 31 0;
#X connect 31 0 29 1;
#X connect 32 0 28 0;
#X connect 33 0 21 0;
#X connect 34 0 30 0;
#X connect 35 0 21 0;
#X connect 37 0 25 1;
#X connect 37 0 22 0;
#X connect 38 0 37 0;
#X connect 38 0 10 0;
#X connect 39 0 9 0;
#X connect 40 0 33 0;
#X connect 40 0 44 0;
#X connect 41 0 42 0;
#X connect 42 0 40 1;
#X connect 43 0 45 1;
#X connect 44 0 45 0;
#X connect 45 0 21 0;
